<?xml version="1.0" standalone="no"?>
<!DOCTYPE svg PUBLIC "-//W3C//DTD SVG 20010904//EN"
 "http://www.w3.org/TR/2001/REC-SVG-20010904/DTD/svg10.dtd">
<svg version="1.0" xmlns="http://www.w3.org/2000/svg"
 width="250.000000pt" height="129.000000pt" viewBox="0 0 250.000000 129.000000"
 preserveAspectRatio="xMidYMid meet">

<g transform="translate(0.000000,129.000000) scale(0.100000,-0.100000)"
fill="#000000" stroke="none">
<path d="M1932 1278 c-8 -8 -12 -51 -12 -126 l0 -115 -20 26 c-50 64 -177 74
-253 20 -59 -41 -87 -94 -87 -166 0 -75 17 -115 70 -160 110 -94 280 -56 335
75 23 56 22 443 -1 452 -20 8 -18 8 -32 -6z m-92 -231 c140 -74 87 -287 -71
-287 -84 0 -153 66 -153 148 0 65 28 111 84 140 56 28 86 28 140 -1z"/>
<path d="M124 1101 c-53 -24 -100 -82 -114 -142 -14 -57 -7 -99 26 -156 62
-108 229 -131 309 -43 l20 22 5 -38 c4 -34 9 -39 30 -39 l25 0 3 115 c4 133
-6 176 -51 227 -61 70 -168 93 -253 54z m176 -60 c67 -48 88 -130 52 -201 -54
-108 -212 -108 -269 0 -36 68 -25 138 29 188 49 45 136 51 188 13z"/>
<path d="M645 1101 c-185 -84 -154 -347 46 -392 53 -12 121 6 161 43 17 16 33
26 36 23 3 -3 0 -29 -7 -59 -12 -52 -33 -82 -78 -105 -28 -14 -115 -14 -165 1
-33 10 -41 9 -49 -3 -14 -22 -11 -27 23 -45 42 -22 133 -29 186 -15 62 17 119
72 137 134 19 66 20 228 0 293 -34 117 -175 178 -290 125z m174 -59 c69 -51
88 -128 49 -201 -66 -124 -258 -100 -284 35 -14 77 32 163 100 184 41 12 105
4 135 -18z"/>
<path d="M1152 1095 c-68 -35 -104 -87 -110 -159 -10 -117 59 -207 176 -229
84 -17 196 42 229 120 21 51 16 141 -10 188 -55 97 -181 132 -285 80z m168
-47 c56 -29 84 -75 84 -140 0 -149 -206 -204 -284 -76 -25 42 -26 112 -1 158
20 38 88 80 130 80 15 0 47 -10 71 -22z"/>
<path d="M2205 1105 c-22 -8 -56 -32 -76 -54 -120 -134 -28 -344 150 -344 60
0 103 17 136 53 l20 22 5 -38 c4 -34 9 -39 30 -39 l25 0 3 115 c4 133 -6 176
-51 227 -59 67 -152 90 -242 58z m165 -64 c14 -10 36 -33 48 -52 20 -28 23
-43 20 -87 -5 -61 -29 -99 -79 -124 -76 -40 -167 -12 -206 62 -26 50 -29 87
-9 134 14 34 66 80 101 89 33 9 98 -2 125 -22z"/>
<path d="M135 364 c-45 -23 -66 -45 -86 -89 -23 -49 -24 -94 -4 -142 20 -48
41 -71 87 -94 49 -25 111 -24 165 2 129 63 131 254 3 319 -47 24 -123 26 -165
4z"/>
<path d="M1695 366 c-16 -8 -42 -26 -57 -42 -108 -116 -26 -304 131 -304 159
0 242 188 133 303 -15 16 -39 35 -54 43 -34 18 -113 18 -153 0z"/>
</g>
</svg>
